<svg width="28" height="27" viewBox="0 0 28 27" xmlns="http://www.w3.org/2000/svg">
  <path d="M0.78125 13.7188C0.78125 12.6094 1.70312 11.7031 2.79688 11.7031H11.9844V2.51562C11.9844 1.42188 12.8906 0.5 14 0.5C15.1094 0.5 16.0156 1.42188 16.0156 2.51562V11.7031H25.2031C26.3125 11.7031 27.2188 12.6094 27.2188 13.7188C27.2188 14.8281 26.3125 15.7344 25.2031 15.7344H16.0156V24.9219C16.0156 26.0312 15.1094 26.9375 14 26.9375C12.8906 26.9375 11.9844 26.0312 11.9844 24.9219V15.7344H2.79688C1.70312 15.7344 0.78125 14.8281 0.78125 13.7188Z"/>
</svg>
