<svg xmlns="http://www.w3.org/2000/svg" width="17" height="16" viewBox="0 0 17 16" fill="none">
<g clip-path="url(#clip0_1_19)">
<path d="M7.94531 0.633855C7.9456 0.465805 8.01235 0.304691 8.13099 0.185678C8.18975 0.126729 8.25958 0.0799776 8.33648 0.0481123C8.41337 0.016247 8.4958 -0.000103661 8.57903 4.94495e-07C8.66228 -4.42416e-05 8.74473 0.016373 8.82161 0.0483078L8.82643 0.0505213C8.90145 0.0823145 8.96966 0.128245 9.02734 0.185808C9.0863 0.244589 9.13305 0.314445 9.16492 0.39136C9.19678 0.468275 9.21313 0.55073 9.21301 0.633985C9.21301 0.637891 9.21275 0.641797 9.21223 0.645573V7.36693H15.9334C15.9373 7.36647 15.9412 7.36621 15.9451 7.36615C16.0305 7.36615 16.1124 7.38333 16.1874 7.41445C16.1893 7.4151 16.1907 7.41588 16.1923 7.41667C16.2673 7.44846 16.3355 7.49439 16.3932 7.55195C16.482 7.64037 16.5424 7.75319 16.567 7.87607C16.5915 7.99895 16.5789 8.12635 16.5308 8.24206C16.4664 8.39753 16.3429 8.52107 16.1874 8.58555V8.58568C16.1106 8.61748 16.0283 8.63385 15.9451 8.63385C15.9412 8.63385 15.9373 8.63359 15.9334 8.63307L9.21223 8.6332V15.3544C9.21276 15.3583 9.21302 15.3622 9.21301 15.3661C9.21301 15.4516 9.1957 15.5336 9.16471 15.6085L9.16236 15.6133C9.09744 15.7673 8.97417 15.8894 8.8195 15.9528C8.66483 16.0162 8.49135 16.0158 8.33698 15.9517C8.25993 15.9199 8.18991 15.8733 8.13096 15.8144C8.07202 15.7555 8.0253 15.6855 7.99349 15.6085C7.96157 15.5317 7.94502 15.4493 7.94505 15.3661C7.94505 15.3622 7.94531 15.3583 7.94584 15.3544V8.6332H1.22467C1.22078 8.63373 1.21687 8.63399 1.21295 8.63398C1.12987 8.63398 1.04761 8.61756 0.970892 8.58568C0.893841 8.55393 0.823828 8.50726 0.764879 8.44836C0.70593 8.38945 0.65921 8.31947 0.627405 8.24245C0.595497 8.16567 0.579071 8.08334 0.579071 8.00019C0.579071 7.91705 0.595497 7.83472 0.627405 7.75794C0.659827 7.67982 0.706832 7.6099 0.764904 7.55182C0.823693 7.49288 0.893551 7.44613 0.970463 7.41426C1.04738 7.3824 1.12983 7.36604 1.21308 7.36615C1.21711 7.36615 1.22102 7.36641 1.2248 7.36693H7.9461V0.645573C7.94558 0.641689 7.94532 0.637774 7.94531 0.633855Z" fill="#777777"/>
</g>
<defs fill="#777777">
<clipPath id="clip0_1_19" fill="#777777">
<rect width="16" height="16" fill="#777777" transform="translate(0.579071)"/>
</clipPath>
</defs>
</svg>