<svg width="17" height="17" viewBox="0 0 17 17" fill="none" xmlns="http://www.w3.org/2000/svg">
<g clip-path="url(#clip0_2_674)">
<path d="M7.82663 0.673471C7.82694 0.494918 7.89786 0.323734 8.02391 0.197282C8.08635 0.134649 8.16055 0.0849762 8.24224 0.0511193C8.32394 0.0172625 8.41152 -0.00011014 8.49996 5.25401e-07C8.58842 -4.70067e-05 8.67601 0.0173963 8.7577 0.051327L8.76282 0.0536789C8.84253 0.0874591 8.915 0.13626 8.97628 0.197421C9.03893 0.259875 9.0886 0.334098 9.12246 0.41582C9.15632 0.497542 9.17368 0.585151 9.17356 0.673609C9.17356 0.677759 9.17329 0.68191 9.17273 0.685922V7.82736H16.314C16.3181 7.82688 16.3223 7.8266 16.3264 7.82653C16.4172 7.82653 16.5042 7.84479 16.5839 7.87786C16.5858 7.87855 16.5873 7.87938 16.589 7.88021C16.6687 7.91399 16.7412 7.96279 16.8025 8.02395C16.8968 8.11789 16.9611 8.23776 16.9871 8.36832C17.0132 8.49889 16.9998 8.63424 16.9487 8.75719C16.8803 8.92237 16.749 9.05364 16.5839 9.12214V9.12228C16.5023 9.15608 16.4148 9.17347 16.3264 9.17347C16.3223 9.17347 16.3181 9.17319 16.314 9.17264L9.17273 9.17278V16.3141C9.17329 16.3182 9.17357 16.3224 9.17356 16.3265C9.17356 16.4173 9.15516 16.5044 9.12224 16.584L9.11975 16.5891C9.05077 16.7528 8.91979 16.8825 8.75546 16.9499C8.59112 17.0172 8.4068 17.0168 8.24278 16.9487C8.16091 16.9149 8.08652 16.8654 8.02389 16.8028C7.96125 16.7402 7.91161 16.6658 7.87782 16.584C7.8439 16.5024 7.82632 16.4149 7.82636 16.3265C7.82635 16.3224 7.82663 16.3182 7.82719 16.3141V9.17278H0.685945C0.681818 9.17334 0.677658 9.17362 0.673494 9.17361C0.585222 9.1736 0.497821 9.15616 0.41631 9.12228C0.334444 9.08855 0.260054 9.03897 0.197421 8.97638C0.134788 8.91379 0.0851476 8.83944 0.0513552 8.7576C0.0174525 8.67602 0 8.58855 0 8.50021C0 8.41186 0.0174525 8.32439 0.0513552 8.24281C0.0858032 8.15981 0.135746 8.08551 0.197448 8.02381C0.259911 7.96118 0.334135 7.91151 0.415854 7.87765C0.497573 7.8438 0.585177 7.82642 0.673632 7.82653C0.677921 7.82653 0.682071 7.82681 0.686083 7.82736H7.82746V0.685922C7.82691 0.681794 7.82663 0.677635 7.82663 0.673471Z" fill="#F5F5F5"/>
</g>
<defs>
<clipPath id="clip0_2_674">
<rect width="17" height="17"/>
</clipPath>
</defs>
</svg>

