<svg width="17" height="16" viewBox="0 0 17 16" fill="none" xmlns="http://www.w3.org/2000/svg">
<g clip-path="url(#clip0_1_25)">
<path fill-rule="evenodd" clip-rule="evenodd" d="M1.79654 2.48534e-06C1.41077 2.48534e-06 1.0408 0.153249 0.768022 0.426029C0.495241 0.698809 0.341995 1.06878 0.341995 1.45455V14.5455C0.341995 14.9312 0.495241 15.3012 0.768022 15.574C1.0408 15.8468 1.41077 16 1.79654 16H14.8875C15.2732 16 15.6432 15.8468 15.916 15.574C16.1887 15.3012 16.342 14.9312 16.342 14.5455V9.45455C16.342 9.26166 16.2654 9.07668 16.129 8.94029C15.9926 8.8039 15.8076 8.72727 15.6147 8.72727C15.4218 8.72727 15.2369 8.8039 15.1005 8.94029C14.9641 9.07668 14.8875 9.26166 14.8875 9.45455V14.5455H1.79654V1.45455H6.88745C7.08033 1.45455 7.26532 1.37792 7.40171 1.24153C7.5381 1.10514 7.61472 0.92016 7.61472 0.727275C7.61472 0.534391 7.5381 0.349406 7.40171 0.213016C7.26532 0.0766258 7.08033 2.48534e-06 6.88745 2.48534e-06H1.79654ZM16.1296 0.212366C16.2649 0.34795 16.3412 0.531407 16.342 0.722911V5.09091C16.342 5.2838 16.2654 5.46878 16.129 5.60517C15.9926 5.74156 15.8076 5.81818 15.6147 5.81818C15.4218 5.81818 15.2369 5.74156 15.1005 5.60517C14.9641 5.46878 14.8875 5.2838 14.8875 5.09091V2.48291L7.40236 9.96946C7.33474 10.0371 7.25447 10.0907 7.16612 10.1273C7.07777 10.1639 6.98308 10.1827 6.88745 10.1827C6.79182 10.1827 6.69713 10.1639 6.60878 10.1273C6.52043 10.0907 6.44016 10.0371 6.37254 9.96946C6.30492 9.90184 6.25128 9.82156 6.21469 9.73321C6.17809 9.64487 6.15926 9.55018 6.15926 9.45455C6.15926 9.35892 6.17809 9.26423 6.21469 9.17588C6.25128 9.08753 6.30492 9.00726 6.37254 8.93964L13.8591 1.45455H11.2511C11.0582 1.45455 10.8732 1.37792 10.7368 1.24153C10.6004 1.10514 10.5238 0.92016 10.5238 0.727275C10.5238 0.534391 10.6004 0.349406 10.7368 0.213016C10.8732 0.0766258 11.0582 2.48534e-06 11.2511 2.48534e-06H15.6147C15.7103 -0.000247637 15.805 0.0183836 15.8934 0.054827C15.9817 0.0912703 16.062 0.144808 16.1296 0.212366Z" fill="black"/>
</g>
<defs>
<clipPath id="clip0_1_25">
<rect width="16" height="16" fill="white" transform="translate(0.341995)"/>
</clipPath>
</defs>
</svg>