<svg width="14" height="16" viewBox="0 0 14 16" fill="none" xmlns="http://www.w3.org/2000/svg">
<path d="M0.0541992 2.47897H13.104M4.57142 4.98854V13.0192M6.57908 4.98854V13.0192M8.58673 4.98854V13.0192M10.8453 15.5287H2.31281C2.11314 15.5287 1.92164 15.4494 1.78045 15.3082C1.63926 15.167 1.55994 14.9755 1.55994 14.7759V2.47897H11.5982V14.7759C11.5982 14.9755 11.5189 15.167 11.3777 15.3082C11.2365 15.4494 11.045 15.5287 10.8453 15.5287ZM8.08482 0.471313H5.07334C4.94022 0.471313 4.81256 0.524193 4.71843 0.618321C4.6243 0.712448 4.57142 0.840111 4.57142 0.973227V2.47897H8.58673V0.973227C8.58673 0.840111 8.53385 0.712448 8.43972 0.618321C8.3456 0.524193 8.21793 0.471313 8.08482 0.471313Z" stroke="#010101" stroke-width="0.941088" stroke-miterlimit="10"/>
</svg>
